<?xml version="1.0" standalone="no"?>
<!DOCTYPE svg PUBLIC "-//W3C//DTD SVG 20010904//EN"
 "http://www.w3.org/TR/2001/REC-SVG-20010904/DTD/svg10.dtd">
<svg version="1.0" xmlns="http://www.w3.org/2000/svg"
 width="300.000000pt" height="300.000000pt" viewBox="0 0 300.000000 300.000000"
 preserveAspectRatio="xMidYMid meet">
<metadata>
Created by potrace 1.14, written by Peter Selinger 2001-2017
</metadata>
<g transform="translate(0.000000,300.000000) scale(0.100000,-0.100000)"
fill="#000000" stroke="none">
<path d="M1335 2989 c-22 -4 -65 -10 -95 -14 -30 -4 -62 -11 -70 -15 -8 -4
-19 -8 -25 -9 -51 -3 -230 -67 -327 -117 -290 -150 -520 -385 -668 -684 -44
-90 -98 -243 -115 -331 -24 -116 -26 -143 -29 -296 -6 -293 61 -545 212 -798
116 -195 311 -389 508 -508 148 -89 367 -170 514 -191 19 -3 49 -8 65 -12 38
-9 350 -9 390 0 17 3 46 9 65 12 132 21 364 100 450 154 8 5 40 23 70 41 225
131 449 378 572 632 63 129 120 325 135 456 9 86 9 299 0 381 -17 143 -77 342
-146 477 -181 360 -498 633 -876 757 -79 25 -97 30 -185 46 -25 5 -58 11 -75
15 -45 9 -324 13 -370 4z"/>
</g>
</svg>
